# xmcd
#
# Track frame offsets: 
#        150
#        12087
#        25680
#        36427
#        48380
#        61077
#        74117
#        88170
#        99367
#        112545
#        123710
#        135427
#        147727
#        159052
#        171047
#        181875
#        192540
#        206797
#        219302
#        232450
#        245255
#        257355
#        268692
#        280415
#        293222
#        311727
#
# Disc length: 4331 seconds
#
# Revision: 0
# Processed by: cddbd v1.4PL0 Copyright (c) Steve Scherf et al.
# Submitted via: ExactAudioCopy v0.90b4
#
DISCID=8310e91a
DTITLE=T-Bone Walker - The Talkin' Guitar
DYEAR=1990
DGENRE=Blues
TTITLE0=Bobby sox blues
TTITLE1=call it stormy monday
TTITLE2=lonesome women blues
TTITLE3=too much trouble blues
TTITLE4=hypin' women blues
TTITLE5=vacation blues
TTITLE6=so blue blues
TTITLE7=strollin' with bones
TTITLE8=you don't love me
TTITLE9=travelin' blues
TTITLE10=evil hearted woman
TTITLE11=glamour girl
TTITLE12=the hustle
TTITLE13=alimony blues
TTITLE14=say! pretty baby
TTITLE15=i'm about to lose my mind
TTITLE16=cold cold feeling
TTITLE17=blues is a woman
TTITLE18=i got the blues
TTITLE19=blue mood
TTITLE20=railroad station blues
TTITLE21=play on little girl
TTITLE22=t-bone blues special
TTITLE23=two bones and a pick
TTITLE24=mean old world
TTITLE25=bonus track
EXTD=
EXTT0=
EXTT1=
EXTT2=
EXTT3=
EXTT4=
EXTT5=
EXTT6=
EXTT7=
EXTT8=
EXTT9=
EXTT10=
EXTT11=
EXTT12=
EXTT13=
EXTT14=
EXTT15=
EXTT16=
EXTT17=
EXTT18=
EXTT19=
EXTT20=
EXTT21=
EXTT22=
EXTT23=
EXTT24=
EXTT25=
PLAYORDER=
